<svg id="Capa_1" data-name="Capa 1" xmlns="http://www.w3.org/2000/svg" viewBox="0 0 237 235"><defs><style>.cls-1{fill:none;stroke:#000;stroke-width:0.3px;}</style></defs><path d="M19.26,9.67a5.88,5.88,0,0,0,0-8.11,5.43,5.43,0,0,0-7.85,0L10.36,2.67l-1-1.09a5.37,5.37,0,0,0-7.82,0A5.8,5.8,0,0,0-.12,5.62,5.9,5.9,0,0,0,1.49,9.69l8.87,9.19Zm-18-4a4.22,4.22,0,0,1,1.22-3,4,4,0,0,1,5.83,0l2.06,2.1,2.06-2.13a4,4,0,0,1,5.83,0,4.34,4.34,0,0,1,1.22,3,4.24,4.24,0,0,1-1.22,3l-7.89,8.2L2.47,8.64A4.4,4.4,0,0,1,1.25,5.62Z" transform="translate(107.64 107.88)"/><line class="cls-1" x1="54" x2="54" y2="36"/><line class="cls-1" y1="54" x2="36" y2="54"/><line class="cls-1" y1="181" x2="36" y2="181"/><line class="cls-1" x1="54" y1="235" x2="54" y2="199"/><line class="cls-1" x1="183" x2="183" y2="36"/><line class="cls-1" x1="237" y1="54" x2="201" y2="54"/><line class="cls-1" x1="237" y1="181" x2="201" y2="181"/><line class="cls-1" x1="183" y1="235" x2="183" y2="199"/><path d="M19.37,9.65a5.87,5.87,0,0,0,0-8.11,5.41,5.41,0,0,0-7.84,0l-1,1.11L9.43,1.56a5.39,5.39,0,0,0-7.83,0A5.81,5.81,0,0,0,0,5.61,5.89,5.89,0,0,0,1.6,9.67l8.88,9.19Z" transform="translate(107.64 107.88)"/></svg>