<svg id="Capa_1" data-name="Capa 1" xmlns="http://www.w3.org/2000/svg" viewBox="0 0 21 19"><defs><style>.cls-1{fill:#4a4a4a;}</style></defs><path class="cls-1" d="M19.4,9.82a5.85,5.85,0,0,0,0-8.1,5.41,5.41,0,0,0-7.84,0L10.51,2.83l-1-1.09a5.39,5.39,0,0,0-7.83,0A5.79,5.79,0,0,0,0,5.78a5.86,5.86,0,0,0,1.6,4.06L10.51,19Zm-18-4a4.26,4.26,0,0,1,1.22-3,4,4,0,0,1,5.83,0l2.06,2.11,2.05-2.13a4,4,0,0,1,5.83,0,4.29,4.29,0,0,1,1.23,3,4.22,4.22,0,0,1-1.23,3L10.51,17,2.62,8.8A4.42,4.42,0,0,1,1.4,5.78Z" transform="translate(-0.03 -0.04)"/></svg>