<svg id="Capa_1" data-name="Capa 1" xmlns="http://www.w3.org/2000/svg" viewBox="0 0 18 19.46"><defs><style>.cls-1{fill:#fff;}</style></defs><path class="cls-1" d="M1.58,14.62a1.27,1.27,0,0,0,1.28,1.16H13.38a1.28,1.28,0,0,0,1.28-1.16L15.84,2.27H.4Z" transform="translate(0.92 3.68)"/><path class="cls-1" d="M15.8-1.75H10.66V-2.4A1.28,1.28,0,0,0,9.38-3.68H6.8A1.27,1.27,0,0,0,5.52-2.4v.65H.35A1.27,1.27,0,0,0-.92-.47,1.27,1.27,0,0,0,.35.81H15.8A1.28,1.28,0,0,0,17.08-.47,1.28,1.28,0,0,0,15.8-1.75Z" transform="translate(0.92 3.68)"/></svg>